HIERARCHY
ROOT Pelvis
{
	OFFSET 0.000000 0.000000 0.000000
	CHANNELS 6 Xposition Yposition Zposition Xrotation Yrotation Zrotation
	JOINT LeftUpLeg_virtual
	{
		OFFSET 0.000000 0.000000 0.000000
		CHANNELS 3 Xrotation Yrotation Zrotation
		JOINT LeftUpLeg
		{
			OFFSET 8.479700 -4.795502 -0.379100
			CHANNELS 3 Xrotation Yrotation Zrotation
			JOINT LeftLeg
			{
				OFFSET 0.024144 -32.555107 0.112900
				CHANNELS 3 Xrotation Yrotation Zrotation
				JOINT LeftFoot
				{
					OFFSET -0.024144 -32.638630 -3.012600
					CHANNELS 3 Xrotation Yrotation Zrotation
					JOINT LeftToeBase
					{
						OFFSET 0.970200 -13.225400 11.864200
						CHANNELS 3 Xrotation Yrotation Zrotation
						End Site
						{
							OFFSET 0 0 0
						}
					}
				}
			}
		}
	}
	JOINT RightUpLeg_virtual
	{
		OFFSET 0.000000 0.000000 0.000000
		CHANNELS 3 Xrotation Yrotation Zrotation
		JOINT RightUpLeg
		{
			OFFSET -8.479700 -4.795502 -0.379100
			CHANNELS 3 Xrotation Yrotation Zrotation
			JOINT RightLeg
			{
				OFFSET -0.023144 -32.555092 0.112900
				CHANNELS 3 Xrotation Yrotation Zrotation
				JOINT RightFoot
				{
					OFFSET 0.023144 -32.638641 -3.012700
					CHANNELS 3 Xrotation Yrotation Zrotation
					JOINT RightToeBase
					{
						OFFSET -0.970200 -13.225400 11.864200
						CHANNELS 3 Xrotation Yrotation Zrotation
						End Site
						{
							OFFSET 0 0 0
						}
					}
				}
			}
		}
	}
	JOINT Hips_virtual
	{
		OFFSET 0.000000 0.000000 0.000000
		CHANNELS 3 Xrotation Yrotation Zrotation
		JOINT Hips
		{
			OFFSET -0.000000 -0.000000 -0.000000
			CHANNELS 3 Xrotation Yrotation Zrotation
			JOINT Spine
			{
				OFFSET 0.000000 7.722000 1.166200
				CHANNELS 3 Xrotation Yrotation Zrotation
				JOINT Spine1
				{
					OFFSET 0.000000 12.024101 0.248800
					CHANNELS 3 Xrotation Yrotation Zrotation
					JOINT Spine2
					{
						OFFSET 0.000000 11.502998 -0.491200
						CHANNELS 3 Xrotation Yrotation Zrotation
						JOINT Neck_virtual
						{
							OFFSET 0.000000 0.000000 0.000000
							CHANNELS 3 Xrotation Yrotation Zrotation
							JOINT Neck
							{
								OFFSET 0.000000 18.430702 -3.123100
								CHANNELS 3 Xrotation Yrotation Zrotation
								JOINT Head
								{
									OFFSET 0.000000 9.051102 1.034000
									CHANNELS 3 Xrotation Yrotation Zrotation
									End Site
									{
										OFFSET 0 0 0
									}
								}
							}
						}
						JOINT LeftShoulder_virtual
						{
							OFFSET 0.000000 0.000000 0.000000
							CHANNELS 3 Xrotation Yrotation Zrotation
							JOINT LeftShoulder
							{
								OFFSET 6.197800 13.665199 -4.064700
								CHANNELS 3 Xrotation Yrotation Zrotation
								JOINT LeftArm
								{
									OFFSET 7.778100 -0.187103 -1.709300
									CHANNELS 3 Xrotation Yrotation Zrotation
									JOINT LeftForeArm
									{
										OFFSET 22.049376 0.000000 0.000000
										CHANNELS 3 Xrotation Yrotation Zrotation
										JOINT LeftHand
										{
											OFFSET 23.009392 0.000000 0.000000
											CHANNELS 3 Xrotation Yrotation Zrotation
											End Site
											{
												OFFSET 0 0 0
											}
										}
									}
								}
							}
						}
						JOINT RightShoulder_virtual
						{
							OFFSET 0.000000 0.000000 0.000000
							CHANNELS 3 Xrotation Yrotation Zrotation
							JOINT RightShoulder
							{
								OFFSET -6.197800 13.665199 -4.064700
								CHANNELS 3 Xrotation Yrotation Zrotation
								JOINT RightArm
								{
									OFFSET -7.778100 -0.187103 -1.709300
									CHANNELS 3 Xrotation Yrotation Zrotation
									JOINT RightForeArm
									{
										OFFSET -22.049376 0.000000 0.000000
										CHANNELS 3 Xrotation Yrotation Zrotation
										JOINT RightHand
										{
											OFFSET -23.009392 0.000000 0.000000
											CHANNELS 3 Xrotation Yrotation Zrotation
											End Site
											{
												OFFSET 0 0 0
											}
										}
									}
								}
							}
						}
					}
				}
			}
		}
	}
}
MOTION
Frames: 12
Frame Time: 0.03333333
0.460267 81.901810 -0.765657 0.000000 0.000000 0.000000 2.912558 -28.989358 1.159686 -17.362061 18.227265 10.847519 16.421173 13.219595 -0.948901 -1.373484 -4.093624 -4.989852 0.000000 0.000000 0.000000 2.912558 -28.989358 1.159686 -8.111739 -1.524722 -9.109932 10.371425 9.490350 0.825514 -5.501222 -0.869598 7.455469 0.000000 0.000000 0.000000 2.912558 -28.989358 1.159686 0.000000 0.000000 0.000000 7.836227 -0.358446 -2.652036 1.099251 -0.880568 2.383463 0.000000 0.000000 0.000000 1.108682 -0.590455 2.446367 -3.842068 18.019057 -6.496396 0.000000 0.000000 0.000000 1.108682 -0.590455 2.446367 -0.057390 -8.759440 -0.061012 -55.249749 0.330144 -41.449911 11.585994 -65.829541 13.007218 0.000000 0.000000 0.000000 1.108682 -0.590455 2.446367 4.849290 7.760146 5.560448 -0.933500 -2.176877 61.845662 11.299286 18.943437 -3.987520 0.000000 0.000000 0.000000 
0.527247 81.868484 -0.865616 0.000000 0.000000 0.000000 2.958197 -28.861251 1.134899 -17.728145 18.197053 10.943304 16.766489 13.771167 -0.910905 -1.440046 -4.797454 -5.000977 0.000000 0.000000 0.000000 2.958197 -28.861251 1.134899 -8.388489 -1.522097 -9.063100 10.724214 9.290476 0.785687 -5.619348 -0.863230 7.442522 0.000000 0.000000 0.000000 2.958197 -28.861251 1.134899 0.000000 0.000002 0.000000 7.802631 -0.357078 -2.652440 1.074050 -0.871352 2.364665 0.000000 0.000000 0.000000 1.083491 -0.588031 2.427852 -3.746777 18.050076 -6.586955 0.000000 0.000000 0.000000 1.083491 -0.588031 2.427852 -0.004174 -8.315560 -0.161324 -55.335259 0.717923 -41.094813 10.897075 -65.775418 12.310735 0.000000 0.000000 0.000000 1.083491 -0.588031 2.427852 4.851985 7.811877 5.709653 -0.844150 -2.132280 61.674614 11.420375 18.937651 -4.006116 0.000000 0.000000 0.000000 
0.602386 81.833351 -0.957850 0.000000 0.000000 0.000000 3.001533 -28.711779 1.102062 -18.111701 18.194304 11.046292 17.135782 14.320375 -0.873591 -1.524845 -5.550333 -5.005266 0.000000 0.000000 0.000000 3.001533 -28.711779 1.102062 -8.641029 -1.581700 -9.000692 11.045654 9.062969 0.703693 -5.729381 -0.840848 7.476083 0.000000 0.000000 0.000000 3.001533 -28.711779 1.102062 0.000000 0.000002 0.000000 7.765657 -0.348474 -2.643252 1.051469 -0.856355 2.346640 0.000000 0.000000 0.000000 1.060733 -0.578900 2.409568 -4.035126 18.103336 -6.236030 0.000000 0.000000 0.000000 1.060733 -0.578900 2.409568 -0.095201 -7.833576 -0.261091 -55.289067 1.044020 -40.597528 10.451499 -65.790411 11.849305 0.000000 0.000000 0.000000 1.060733 -0.578900 2.409568 4.852109 7.875467 5.834441 -0.731463 -2.101494 61.529971 11.542483 18.958858 -4.028572 0.000000 0.000000 0.000000 
0.688268 81.793091 -1.037193 0.000000 0.000000 0.000000 3.034806 -28.502093 1.044296 -18.541051 18.209098 11.162618 17.552410 13.465389 -0.943840 -1.634682 -4.988614 -4.837438 0.000000 0.000000 0.000000 3.034806 -28.502093 1.044296 -8.854890 -1.692267 -8.918852 11.348741 8.774524 0.586847 -5.846331 -0.808612 7.555525 0.000000 0.000000 0.000000 3.034806 -28.502093 1.044296 0.000000 0.000001 0.000000 7.720323 -0.326156 -2.607081 1.037691 -0.825892 2.332715 0.000000 0.000000 0.000000 1.046382 -0.551330 2.393829 -4.158288 18.277615 -6.094378 0.000000 0.000000 0.000000 1.046382 -0.551330 2.393829 -0.122211 -7.332439 -0.371026 -55.212971 1.531640 -40.105600 9.829921 -65.922616 11.210565 0.000000 0.000000 0.000000 1.046382 -0.551330 2.393829 4.844677 7.972239 5.880412 -0.550618 -2.122584 61.472843 11.675093 19.081204 -4.071066 0.000000 0.000000 0.000000 
0.778659 81.751266 -1.108150 0.000000 0.000000 0.000000 3.072735 -28.263307 0.979828 -18.989024 18.239530 11.288899 18.001670 13.502804 -0.941810 -1.767419 -5.365509 -4.765680 0.000000 0.000000 0.000000 3.072735 -28.263307 0.979828 -9.051312 -1.835058 -8.826783 11.629842 8.456164 0.447770 -5.959442 -0.768959 7.665300 0.000000 0.000000 0.000000 3.072735 -28.263307 0.979828 0.000000 0.000000 0.000000 7.669917 -0.294980 -2.555342 1.024544 -0.785731 2.316042 0.000000 0.000000 0.000000 1.032499 -0.513468 2.374548 -4.234205 18.653812 -6.061270 0.000000 0.000000 0.000000 1.032499 -0.513468 2.374548 -0.121054 -6.796874 -0.488153 -55.142945 2.029461 -39.651710 9.135339 -66.083829 10.497821 0.000000 0.000000 0.000000 1.032499 -0.513468 2.374548 4.835497 8.084640 5.913530 -0.348455 -2.133823 61.427101 11.793705 19.189411 -4.098376 0.000000 0.000000 0.000000 
0.869839 81.710983 -1.175831 0.000000 0.000000 0.000000 3.132820 -28.019005 0.917447 -19.455360 18.281158 11.419865 18.438630 13.539280 -0.936566 -1.895575 -5.758856 -4.687125 0.000000 0.000000 0.000000 3.132820 -28.019005 0.917447 -9.241885 -1.994799 -8.723482 11.863119 8.130697 0.298350 -6.049477 -0.724153 7.793109 0.000000 0.000000 0.000000 3.132820 -28.019005 0.917447 0.000000 0.000001 0.000000 7.619225 -0.263109 -2.486745 1.002661 -0.742647 2.286284 0.000000 0.000000 0.000000 1.009840 -0.474217 2.342133 -4.398399 19.187432 -5.876523 0.000000 0.000000 0.000000 1.009840 -0.474217 2.342133 -0.121624 -6.150415 -0.609532 -55.115050 2.492396 -39.197059 8.687337 -66.249058 10.025874 0.000000 0.000000 0.000000 1.009840 -0.474217 2.342133 4.828864 8.206946 5.994847 -0.170091 -2.075641 61.317327 11.837807 19.144429 -4.051632 0.000000 0.000000 0.000000 
0.965582 81.669380 -1.228542 0.000000 0.000000 0.000000 3.198308 -27.752759 0.867250 -19.914672 18.336792 11.527824 18.871509 13.564610 -0.929626 -2.033661 -6.168929 -4.601261 0.000000 0.000000 0.000000 3.198308 -27.752759 0.867250 -9.423564 -2.152518 -8.642509 12.096122 7.790606 0.148043 -6.150246 -0.682056 7.938527 0.000000 0.000000 0.000000 3.198308 -27.752759 0.867250 0.000000 -0.000001 0.000000 7.558847 -0.220690 -2.421317 0.981920 -0.683667 2.257196 0.000000 0.000000 0.000000 0.988250 -0.419400 2.309414 -4.421087 20.029627 -5.825417 0.000000 0.000000 0.000000 0.988250 -0.419400 2.309414 -0.137811 -5.281945 -0.732836 -55.099754 2.847250 -38.843180 8.518036 -66.232249 9.832313 0.000000 0.000000 0.000000 0.988250 -0.419400 2.309414 4.823348 8.325182 6.084430 0.027495 -1.981523 61.197361 11.923156 19.091922 -4.012282 0.000000 0.000000 0.000000 
1.071938 81.623619 -1.252945 0.000000 0.000000 0.000000 3.257573 -27.451439 0.846786 -20.345194 18.411133 11.576650 19.313683 13.573116 -0.922326 -2.200424 -6.595578 -4.496143 0.000000 0.000000 0.000000 3.257573 -27.451439 0.846786 -9.595259 -2.287721 -8.624867 12.370073 7.431592 0.006429 -6.295131 -0.651137 8.104985 0.000000 0.000000 0.000000 3.257573 -27.451439 0.846786 0.000000 0.000000 0.000000 7.477703 -0.159623 -2.389799 0.970695 -0.596122 2.244735 0.000000 0.000000 0.000000 0.976070 -0.335536 2.291522 -4.239376 21.196321 -5.764240 0.000000 0.000000 0.000000 0.976070 -0.335536 2.291522 -0.123271 -4.545774 -0.861815 -55.151787 3.387738 -38.416051 8.962736 -66.224585 10.231375 0.000000 0.000000 0.000000 0.976070 -0.335536 2.291522 4.819880 8.411055 6.148033 0.298616 -1.832812 61.114750 12.200184 19.167182 -4.066555 0.000000 0.000000 0.000000 
1.192596 81.577637 -1.249208 0.000000 0.000000 0.000000 3.312650 -27.128417 0.843469 -20.740375 18.498208 11.575934 19.747627 13.571520 -0.913771 -2.387882 -7.027673 -4.376679 0.000000 0.000000 0.000000 3.312650 -27.128417 0.843469 -9.732252 -2.391493 -8.660833 12.621927 7.068743 -0.115416 -6.445128 -0.634436 8.289812 0.000000 0.000000 0.000000 3.312650 -27.128417 0.843469 0.000000 0.000001 0.000000 7.386205 -0.083396 -2.359450 0.964204 -0.486272 2.231983 0.000000 0.000000 0.000000 0.968521 -0.229713 2.272018 -3.954011 22.754348 -5.876479 0.000000 0.000000 0.000000 0.968521 -0.229713 2.272018 -0.097633 -3.831649 -0.993992 -55.094966 4.077408 -37.778493 9.204539 -66.373217 10.434368 0.000000 0.000000 0.000000 0.968521 -0.229713 2.272018 4.816397 8.501686 6.229781 0.563628 -1.726069 61.017331 12.505176 19.261130 -4.145846 0.000000 0.000000 0.000000 
1.333866 81.534454 -1.211201 0.000000 0.000000 0.000000 3.363400 -26.799530 0.848989 -21.090577 18.593882 11.526329 20.168580 13.569067 -0.903389 -2.600597 -7.453652 -4.240257 0.000000 0.000000 0.000000 3.363400 -26.799530 0.848989 -9.808842 -2.453551 -8.750989 12.798063 6.721319 -0.206051 -6.571921 -0.635774 8.492873 0.000000 0.000000 0.000000 3.363400 -26.799530 0.848989 0.000000 0.000000 0.000000 7.290945 0.010687 -2.299199 0.959096 -0.352446 2.206369 0.000000 0.000000 0.000000 0.962314 -0.101337 2.238351 -3.764853 24.719363 -5.953734 0.000000 0.000000 0.000000 0.962314 -0.101337 2.238351 -0.072348 -3.062204 -1.127436 -54.777096 4.617403 -36.812507 8.370333 -66.646630 9.564912 0.000000 0.000000 0.000000 0.962314 -0.101337 2.238351 4.810349 8.631820 6.376237 0.757571 -1.787259 60.849998 12.709520 19.330644 -4.212891 0.000000 0.000000 0.000000 
1.486984 81.494377 -1.147507 0.000000 0.000000 0.000000 3.404925 -26.444138 0.868259 -21.385918 18.695023 11.423123 20.553320 13.553664 -0.891348 -2.817682 -7.876478 -4.088653 0.000000 0.000000 0.000000 3.404925 -26.444138 0.868259 -9.832432 -2.458527 -8.897544 12.930233 6.374403 -0.257017 -6.689339 -0.660103 8.697991 0.000000 0.000000 0.000000 3.404925 -26.444138 0.868259 0.000000 -0.000001 0.000000 7.192683 0.112617 -2.234668 0.959411 -0.205206 2.170834 0.000000 0.000000 0.000000 0.961659 0.039518 2.194106 -3.267897 27.049248 -6.285111 0.000000 0.000000 0.000000 0.961659 0.039518 2.194106 -0.049788 -2.182467 -1.260931 -54.297805 5.181459 -35.736082 6.714811 -67.007161 7.904445 0.000000 0.000000 0.000000 0.961659 0.039518 2.194106 4.802324 8.780399 6.545477 0.892053 -1.910164 60.669702 12.855441 19.314515 -4.255119 0.000000 0.000000 0.000000 
1.648195 81.461075 -1.054491 0.000000 0.000000 0.000000 3.425308 -26.026067 0.911616 -21.588440 18.806789 11.236018 20.857928 13.506343 -0.877226 -3.018283 -8.306521 -3.906647 0.000000 0.000000 0.000000 3.425308 -26.026067 0.911616 -9.833763 -2.599219 -9.064984 13.080833 5.938505 -0.414790 -6.787806 -0.647421 8.986336 0.000000 0.000000 0.000000 3.425308 -26.026067 0.911616 0.000000 0.000000 0.000000 7.094249 0.211795 -2.186248 0.972166 -0.052523 2.118529 0.000000 0.000000 0.000000 0.973769 0.184328 2.133067 -2.790802 29.350252 -6.576886 0.000000 0.000000 0.000000 0.973769 0.184328 2.133067 -0.019029 -1.270460 -1.394883 -53.841411 5.802481 -34.630258 5.045568 -67.352796 6.229940 0.000000 0.000000 0.000000 0.973769 0.184328 2.133067 4.791957 8.942288 6.709533 0.919726 -2.028057 60.525687 12.912753 19.056834 -4.223217 0.000000 0.000000 0.000000 
